<svg xmlns="http://www.w3.org/2000/svg" viewBox="0 0 780 440"><g id="Background"><rect width="780" height="440" fill="#a1c2f8" stroke-width="0"></rect></g><g id="Graphic"><rect x="321.75" y="278.08" width="134.56" height="19.46" rx="9.73" ry="9.73" fill="#d8d7f9" stroke="#162020" stroke-miterlimit="10" stroke-width="1.5"></rect><rect x="321.65" y="278.08" width="114.55" height="19.46" rx="9.73" ry="9.73" fill="#ac44a8" stroke="#162020" stroke-miterlimit="10" stroke-width="1.5"></rect><rect x="321.75" y="308.47" width="134.56" height="19.46" rx="9.73" ry="9.73" fill="#d8d7f9" stroke="#162020" stroke-miterlimit="10" stroke-width="1.5"></rect><rect x="321.75" y="338.87" width="134.56" height="19.46" rx="9.73" ry="9.73" fill="#d8d7f9" stroke="#162020" stroke-miterlimit="10" stroke-width="1.5"></rect><rect x="321.65" y="308.43" width="79.6" height="19.46" rx="9.73" ry="9.73" fill="#ac44a8" stroke="#162020" stroke-miterlimit="10" stroke-width="1.5"></rect><rect x="321.65" y="338.98" width="99.34" height="19.46" rx="9.73" ry="9.73" fill="#ac44a8" stroke="#162020" stroke-miterlimit="10" stroke-width="1.5"></rect><circle cx="354.18" cy="87.7" r="6.28" fill="#ec9af1" stroke="#162020" stroke-miterlimit="10" stroke-width="1.5"></circle><path d="m354.28,95.33h0c5.79,0,10.49,4.7,10.49,10.49v8.43h-20.99v-8.43c0-5.79,4.7-10.49,10.49-10.49Z" fill="#ec9af1" stroke="#162020" stroke-miterlimit="10" stroke-width="1.5"></path><circle cx="383.4" cy="87.7" r="6.28" fill="#ec9af1" stroke="#162020" stroke-miterlimit="10" stroke-width="1.5"></circle><path d="m383.5,95.33h0c5.79,0,10.49,4.7,10.49,10.49v8.43h-20.99v-8.43c0-5.79,4.7-10.49,10.49-10.49Z" fill="#ec9af1" stroke="#162020" stroke-miterlimit="10" stroke-width="1.5"></path><circle cx="412.62" cy="87.7" r="6.28" fill="#ec9af1" stroke="#162020" stroke-miterlimit="10" stroke-width="1.5"></circle><path d="m412.72,95.33h0c5.79,0,10.49,4.7,10.49,10.49v8.43h-20.99v-8.43c0-5.79,4.7-10.49,10.49-10.49Z" fill="#ec9af1" stroke="#162020" stroke-miterlimit="10" stroke-width="1.5"></path><circle cx="441.84" cy="87.7" r="6.28" fill="#ec9af1" stroke="#162020" stroke-miterlimit="10" stroke-width="1.5"></circle><path d="m441.95,95.33h0c5.79,0,10.49,4.7,10.49,10.49v8.43h-20.99v-8.43c0-5.79,4.7-10.49,10.49-10.49Z" fill="#ec9af1" stroke="#162020" stroke-miterlimit="10" stroke-width="1.5"></path><circle cx="354.18" cy="135.94" r="6.28" fill="#ec9af1" stroke="#162020" stroke-miterlimit="10" stroke-width="1.5"></circle><path d="m354.28,143.57h0c5.79,0,10.49,4.7,10.49,10.49v8.43h-20.99v-8.43c0-5.79,4.7-10.49,10.49-10.49Z" fill="#ec9af1" stroke="#162020" stroke-miterlimit="10" stroke-width="1.5"></path><circle cx="383.4" cy="135.94" r="6.28" fill="#ec9af1" stroke="#162020" stroke-miterlimit="10" stroke-width="1.5"></circle><path d="m383.5,143.57h0c5.79,0,10.49,4.7,10.49,10.49v8.43h-20.99v-8.43c0-5.79,4.7-10.49,10.49-10.49Z" fill="#ec9af1" stroke="#162020" stroke-miterlimit="10" stroke-width="1.5"></path><circle cx="412.62" cy="135.94" r="6.28" fill="#ec9af1" stroke="#162020" stroke-miterlimit="10" stroke-width="1.5"></circle><path d="m412.72,143.57h0c5.79,0,10.49,4.7,10.49,10.49v8.43h-20.99v-8.43c0-5.79,4.7-10.49,10.49-10.49Z" fill="#ec9af1" stroke="#162020" stroke-miterlimit="10" stroke-width="1.5"></path><circle cx="441.84" cy="135.94" r="6.28" fill="#ec9af1" stroke="#162020" stroke-miterlimit="10" stroke-width="1.5"></circle><path d="m441.95,143.57h0c5.79,0,10.49,4.7,10.49,10.49v8.43h-20.99v-8.43c0-5.79,4.7-10.49,10.49-10.49Z" fill="#ec9af1" stroke="#162020" stroke-miterlimit="10" stroke-width="1.5"></path><polyline points="482.71 355.99 675.77 355.99 675.57 248.78" fill="none" stroke="#162020" stroke-linecap="round" stroke-linejoin="round" stroke-width="1.5"></polyline><line x1="490.74" y1="354.8" x2="520.87" y2="334.72" fill="none" stroke="#162020" stroke-miterlimit="10" stroke-width="1.5"></line><path d="m494.63,355.89c-.56,2-2.76,3.13-4.9,2.53s-3.43-2.71-2.87-4.71,2.76-3.13,4.9-2.53,3.43,2.71,2.87,4.71Z" fill="#ec9af1" stroke="#162020" stroke-miterlimit="10" stroke-width="1.5"></path><polyline points="648.67 293.05 627.66 316.61 594.68 302.37 571.11 329.86 542.94 305.08" fill="none" stroke="#162020" stroke-miterlimit="10" stroke-width="1.5"></polyline><line x1="521.08" y1="334.12" x2="544.66" y2="306.63" fill="none" stroke="#162020" stroke-miterlimit="10" stroke-width="1.5"></line><line x1="650.26" y1="291.72" x2="673.84" y2="264.23" fill="none" stroke="#162020" stroke-miterlimit="10" stroke-width="1.5"></line><path d="m575.9,328.08c0,2.08-1.81,3.76-4.04,3.76s-4.04-1.68-4.04-3.76,1.81-3.76,4.04-3.76,4.04,1.68,4.04,3.76Z" fill="#ec9af1" stroke="#162020" stroke-miterlimit="10" stroke-width="1.5"></path><path d="m548.69,306.39c0,2.08-1.81,3.76-4.04,3.76s-4.04-1.68-4.04-3.76,1.81-3.76,4.04-3.76,4.04,1.68,4.04,3.76Z" fill="#ec9af1" stroke="#162020" stroke-miterlimit="10" stroke-width="1.5"></path><path d="m525.12,334.12c0,2.08-1.81,3.76-4.04,3.76s-4.04-1.68-4.04-3.76c0-2.08,1.81-3.76,4.04-3.76s4.04,1.68,4.04,3.76Z" fill="#ec9af1" stroke="#162020" stroke-miterlimit="10" stroke-width="1.5"></path><path d="m599.17,302.87c0,2.08-1.81,3.76-4.04,3.76s-4.04-1.68-4.04-3.76c0-2.08,1.81-3.76,4.04-3.76s4.04,1.68,4.04,3.76Z" fill="#ec9af1" stroke="#162020" stroke-miterlimit="10" stroke-width="1.5"></path><path d="m631.66,316.39c0,2.08-1.81,3.76-4.04,3.76-2.23,0-4.04-1.68-4.04-3.76s1.81-3.76,4.04-3.76,4.04,1.68,4.04,3.76Z" fill="#ec9af1" stroke="#162020" stroke-miterlimit="10" stroke-width="1.5"></path><path d="m652.99,293c0,2.08-1.81,3.76-4.04,3.76s-4.04-1.68-4.04-3.76,1.81-3.76,4.04-3.76,4.04,1.68,4.04,3.76Z" fill="#ec9af1" stroke="#162020" stroke-miterlimit="10" stroke-width="1.5"></path><path d="m679,262.86c0,2.08-1.81,3.76-4.04,3.76s-4.04-1.68-4.04-3.76c0-2.08,1.81-3.76,4.04-3.76s4.04,1.68,4.04,3.76Z" fill="#ec9af1" stroke="#162020" stroke-miterlimit="10" stroke-width="1.5"></path><path d="m613.09,215.17c-6.02,5.55-14.03,8.96-22.86,8.96-.37,0-.72-.04-1.09-.05-8.95-.29-17.02-4.02-22.9-9.96l-24.75,24.75c12.22,12.27,29.04,19.94,47.65,20.23.36,0,.72.03,1.09.03,18.5,0,35.27-7.32,47.63-19.19l-24.77-24.77h0Z" fill="#d8d7f9" stroke="#162020" stroke-miterlimit="10" stroke-width="1.5"></path><path d="m551.9,188.08h-35.02c.23,18.59,7.82,35.41,20.01,47.65l24.75-24.75c-5.86-5.91-9.51-13.98-9.74-22.9h0Z" fill="#ec9af1" stroke="#162020" stroke-miterlimit="10" stroke-width="1.5"></path><path d="m650.04,122.32c-14.75-14.68-35.07-23.75-57.52-23.75-.43,0-.86.03-1.29.03v41.53c.43-.01.85-.07,1.29-.07,10.99,0,20.94,4.43,28.17,11.6,7.33,7.26,11.87,17.32,11.87,28.44,0,.34-.04.68-.05,1.02-.28,11.23-5.18,21.29-12.88,28.39l29.37,29.37c15.21-14.62,24.76-35.07,25.04-57.76,0-.34.03-.68.03-1.02,0-22.59-9.19-43.02-24.02-57.79Z" fill="#205bc3" stroke="#162020" stroke-miterlimit="10" stroke-width="1.5"></path><path d="m536.89,134.99c-11.88,12.36-19.19,29.14-19.19,47.63,0,.29.02.57.02.86h35.02c0-.29-.04-.57-.04-.86,0-8.83,3.42-16.84,8.96-22.86,5.94-6.44,14.34-10.56,23.72-10.86v-35.03c-19.05.3-36.21,8.33-48.49,21.11h0Z" fill="#ac44a8" stroke="#162020" stroke-miterlimit="10" stroke-width="1.5"></path><line x1="569.15" y1="122.31" x2="551.54" y2="93.11" fill="none" stroke="#162020" stroke-miterlimit="10" stroke-width="1.5"></line><rect x="529.29" y="81.73" width="44.49" height="8.16" fill="#ec9af1" stroke="#162020" stroke-miterlimit="10" stroke-width="1.5"></rect><line x1="526.41" y1="196.5" x2="496.54" y2="227.57" fill="none" stroke="#162020" stroke-miterlimit="10" stroke-width="1.5"></line><rect x="448.67" y="230.12" width="44.49" height="8.16" fill="#ec9af1" stroke="#162020" stroke-miterlimit="10" stroke-width="1.5"></rect><circle cx="108.8" cy="90.64" r="7.8" fill="#ec9af1" stroke="#162020" stroke-miterlimit="10" stroke-width="1.5"></circle><circle cx="130.69" cy="90.64" r="7.8" fill="#ec9af1" stroke="#162020" stroke-miterlimit="10" stroke-width="1.5"></circle><circle cx="152.58" cy="90.64" r="7.8" fill="#ec9af1" stroke="#162020" stroke-miterlimit="10" stroke-width="1.5"></circle><circle cx="174.47" cy="90.64" r="7.8" fill="#ec9af1" stroke="#162020" stroke-miterlimit="10" stroke-width="1.5"></circle><circle cx="108.8" cy="114.26" r="7.8" fill="#ec9af1" stroke="#162020" stroke-miterlimit="10" stroke-width="1.5"></circle><circle cx="130.69" cy="114.26" r="7.8" fill="#ec9af1" stroke="#162020" stroke-miterlimit="10" stroke-width="1.5"></circle><circle cx="152.58" cy="114.26" r="7.8" fill="#ec9af1" stroke="#162020" stroke-miterlimit="10" stroke-width="1.5"></circle><circle cx="174.47" cy="114.26" r="7.8" fill="#ec9af1" stroke="#162020" stroke-miterlimit="10" stroke-width="1.5"></circle><circle cx="108.8" cy="137.88" r="7.8" fill="#ec9af1" stroke="#162020" stroke-miterlimit="10" stroke-width="1.5"></circle><circle cx="130.69" cy="137.88" r="7.8" fill="#ec9af1" stroke="#162020" stroke-miterlimit="10" stroke-width="1.5"></circle><circle cx="152.58" cy="137.88" r="7.8" fill="#ec9af1" stroke="#162020" stroke-miterlimit="10" stroke-width="1.5"></circle><circle cx="174.47" cy="137.88" r="7.8" fill="#ec9af1" stroke="#162020" stroke-miterlimit="10" stroke-width="1.5"></circle><circle cx="108.8" cy="161.49" r="7.8" fill="#ec9af1" stroke="#162020" stroke-miterlimit="10" stroke-width="1.5"></circle><circle cx="130.69" cy="161.49" r="7.8" fill="#ec9af1" stroke="#162020" stroke-miterlimit="10" stroke-width="1.5"></circle><circle cx="152.58" cy="161.49" r="7.8" fill="#ec9af1" stroke="#162020" stroke-miterlimit="10" stroke-width="1.5"></circle><circle cx="174.47" cy="161.49" r="7.8" fill="#ec9af1" stroke="#162020" stroke-miterlimit="10" stroke-width="1.5"></circle><circle cx="108.8" cy="185.11" r="7.8" fill="#ec9af1" stroke="#162020" stroke-miterlimit="10" stroke-width="1.5"></circle><circle cx="130.69" cy="185.11" r="7.8" fill="#ec9af1" stroke="#162020" stroke-miterlimit="10" stroke-width="1.5"></circle><circle cx="152.58" cy="185.11" r="7.8" fill="#ec9af1" stroke="#162020" stroke-miterlimit="10" stroke-width="1.5"></circle><circle cx="174.47" cy="185.11" r="7.8" fill="#ec9af1" stroke="#162020" stroke-miterlimit="10" stroke-width="1.5"></circle><circle cx="108.8" cy="208.73" r="7.8" fill="#ec9af1" stroke="#162020" stroke-miterlimit="10" stroke-width="1.5"></circle><circle cx="130.69" cy="208.73" r="7.8" fill="#ec9af1" stroke="#162020" stroke-miterlimit="10" stroke-width="1.5"></circle><circle cx="152.58" cy="208.73" r="7.8" fill="#ec9af1" stroke="#162020" stroke-miterlimit="10" stroke-width="1.5"></circle><circle cx="174.47" cy="208.73" r="7.8" fill="#ec9af1" stroke="#162020" stroke-miterlimit="10" stroke-width="1.5"></circle><circle cx="108.8" cy="232.34" r="7.8" fill="#ec9af1" stroke="#162020" stroke-miterlimit="10" stroke-width="1.5"></circle><circle cx="130.69" cy="232.34" r="7.8" fill="#ec9af1" stroke="#162020" stroke-miterlimit="10" stroke-width="1.5"></circle><circle cx="152.58" cy="232.34" r="7.8" fill="#ec9af1" stroke="#162020" stroke-miterlimit="10" stroke-width="1.5"></circle><circle cx="174.47" cy="232.34" r="7.8" fill="#ec9af1" stroke="#162020" stroke-miterlimit="10" stroke-width="1.5"></circle><circle cx="108.8" cy="255.96" r="7.8" fill="#ec9af1" stroke="#162020" stroke-miterlimit="10" stroke-width="1.5"></circle><circle cx="130.69" cy="255.96" r="7.8" fill="#ec9af1" stroke="#162020" stroke-miterlimit="10" stroke-width="1.5"></circle><circle cx="152.58" cy="255.96" r="7.8" fill="#ec9af1" stroke="#162020" stroke-miterlimit="10" stroke-width="1.5"></circle><circle cx="174.47" cy="255.96" r="7.8" fill="#ec9af1" stroke="#162020" stroke-miterlimit="10" stroke-width="1.5"></circle><circle cx="108.8" cy="279.58" r="7.8" fill="#ec9af1" stroke="#162020" stroke-miterlimit="10" stroke-width="1.5"></circle><circle cx="130.69" cy="279.58" r="7.8" fill="#ec9af1" stroke="#162020" stroke-miterlimit="10" stroke-width="1.5"></circle><circle cx="152.58" cy="279.58" r="7.8" fill="#ec9af1" stroke="#162020" stroke-miterlimit="10" stroke-width="1.5"></circle><circle cx="174.47" cy="279.58" r="7.8" fill="#ec9af1" stroke="#162020" stroke-miterlimit="10" stroke-width="1.5"></circle><circle cx="108.8" cy="303.2" r="7.8" fill="#ec9af1" stroke="#162020" stroke-miterlimit="10" stroke-width="1.5"></circle><circle cx="130.69" cy="303.2" r="7.8" fill="#ec9af1" stroke="#162020" stroke-miterlimit="10" stroke-width="1.5"></circle><circle cx="152.58" cy="303.2" r="7.8" fill="#ec9af1" stroke="#162020" stroke-miterlimit="10" stroke-width="1.5"></circle><circle cx="174.47" cy="303.2" r="7.8" fill="#ec9af1" stroke="#162020" stroke-miterlimit="10" stroke-width="1.5"></circle><circle cx="108.8" cy="326.81" r="7.8" fill="#ec9af1" stroke="#162020" stroke-miterlimit="10" stroke-width="1.5"></circle><circle cx="130.69" cy="326.81" r="7.8" fill="#ec9af1" stroke="#162020" stroke-miterlimit="10" stroke-width="1.5"></circle><circle cx="152.58" cy="326.81" r="7.8" fill="#ec9af1" stroke="#162020" stroke-miterlimit="10" stroke-width="1.5"></circle><circle cx="174.47" cy="326.81" r="7.8" fill="#ec9af1" stroke="#162020" stroke-miterlimit="10" stroke-width="1.5"></circle><circle cx="108.8" cy="350.43" r="7.8" fill="#ec9af1" stroke="#162020" stroke-miterlimit="10" stroke-width="1.5"></circle><circle cx="130.69" cy="350.43" r="7.8" fill="#ec9af1" stroke="#162020" stroke-miterlimit="10" stroke-width="1.5"></circle><circle cx="152.58" cy="350.43" r="7.8" fill="#ec9af1" stroke="#162020" stroke-miterlimit="10" stroke-width="1.5"></circle><circle cx="174.47" cy="350.43" r="7.8" fill="#ec9af1" stroke="#162020" stroke-miterlimit="10" stroke-width="1.5"></circle><path d="m204.06,97.42c15.81.76,44.66,4.65,64.74,24.22,14.9,14.52,24.7,32.76,24.7,32.76,1.73,3.23,3.63,7.09,6.59,12.43,1.27,2.29,2.66,4.77,4.32,7.5,2.79,4.58,6.32,10.4,11.5,16.29,2.2,2.51,6.93,7.56,14,12.56,2.84,2.01,12.85,8.82,27.88,12.7,5.3,1.37,12.75,2.77,21.83,2.82" fill="none" stroke="#162020" stroke-miterlimit="10" stroke-width="1.5"></path><path d="m203.82,114.58c7.23-.26,19.83.28,33.62,6.44,12.62,5.64,20.46,13.42,24.67,17.67,9.75,9.85,9.39,13.89,21.26,29.43,7.1,9.29,12.95,16.81,22.66,24.99,9.81,8.27,17.92,12.43,20.43,13.68,2.42,1.2,8.96,4.32,17.78,6.81,1.94.55,4.41,1.16,8.71,2.02,6.29,1.27,14.63,2.29,26.24,3.19" fill="none" stroke="#162020" stroke-miterlimit="10" stroke-width="1.5"></path><path d="m203.08,152.76c10.38-.7,23.56-.01,39.18,6.55,11.55,4.85,15.49,9.33,34.72,23.61,26.18,19.43,35.43,23.43,42.12,25.76,5.79,2.02,10.16,2.95,18.15,4.66,17.37,3.72,30.94,4.88,40.96,5.48" fill="none" stroke="#162020" stroke-miterlimit="10" stroke-width="1.5"></path><path d="m203.72,253.34c20.48.81,35.73-2.8,45.78-6.2,20.98-7.08,25.76-15.35,48.57-21.13,8.36-2.12,17.81-2.87,36.71-4.37,18.6-1.48,34.05-2.07,44.88-2.33" fill="none" stroke="#162020" stroke-miterlimit="10" stroke-width="1.5"></path><path d="m203.78,343.66c40.59-2.13,59.62-17.49,67.65-25.7,3.67-3.75,21.32-22.65,31.51-46.08,1.04-2.38,5.63-13.17,14.39-24.2,3.82-4.81,8.07-9.22,13.61-13.16,4.03-2.86,7.59-4.66,9.7-5.72,3.77-1.9,8.24-3.71,14.58-5.68,0,0,5.63-1.61,24.32-4.05" fill="none" stroke="#162020" stroke-miterlimit="10" stroke-width="1.5"></path><path d="m203.53,325.02c26.14.58,41.17-8.44,47.67-13.2,9.63-7.04,17.13-16.84,22.31-23.59,7.9-10.32,9.85-15.57,19.62-27.14,4.94-5.85,8.63-10.22,14.42-15.18,15.83-13.54,32.2-19.08,39.58-20.71,8.22-1.83,13.67-3.12,22.2-4.78,2.89-.57,6.74-1.23,10.3-1.35" fill="none" stroke="#162020" stroke-miterlimit="10" stroke-width="1.5"></path><path d="m203.78,287.25c10.39.54,25.76-.1,41.27-6.9,12.95-5.68,16.28-11.18,34.35-24.13,16.19-11.6,28.37-23.19,46.89-27.19,13.71-2.96,5.78-2.67,52.94-9.97" fill="none" stroke="#162020" stroke-miterlimit="10" stroke-width="1.5"></path><path d="m203.78,182.77c12.4-.54,27.41.47,44.58,6.9,17.82,6.67,20.35,13.03,40.11,20.2,17.77,6.45,32.75,7.49,46.54,8.45,12.14.84,25.47.99,43.5.75" fill="none" stroke="#162020" stroke-miterlimit="10" stroke-width="1.5"></path></g></svg>